mtllib ./a_scene.unity_1.mtl
g Path
v -403.7393 50.54043 566.1298
v -403.7393 50.54043 566.1298
v -403.7393 50.54043 566.1298
v -403.7393 50.54043 566.1298
v -403.7393 50.54043 566.1298
v -403.7393 50.54043 566.1298
v -417.259 50.20766 567.7988
v -412.4765 50.12231 576.5811
v -417.259 50.20766 567.7988
v -412.4765 50.12231 576.5811
v -428.3275 50.14823 573.7964
v -423.5634 50.08647 582.5886
v -428.3275 50.14823 573.7964
v -423.5634 50.08647 582.5886
v -439.285 50.25192 579.6737
v -434.5582 50.17941 588.4861
v -439.285 50.25192 579.6737
v -434.5582 50.17941 588.4861
v -450.08 50.3935 585.373
v -445.411 50.30893 594.2162
v -450.08 50.3935 585.373
v -445.411 50.30893 594.2162
v -460.6604 50.32132 590.8364
v -456.0722 50.24441 599.7217
v -460.6604 50.32132 590.8364
v -456.0722 50.24441 599.7217
v -470.9739 50.04889 596.0059
v -466.4927 49.9741 604.9456
v -470.9739 50.04889 596.0059
v -466.4927 49.9741 604.9456
v -480.9671 49.58897 600.823
v -476.6244 49.52189 609.8308
v -480.9671 49.58897 600.823
v -476.6244 49.52189 609.8308
v -490.5858 49.15043 605.2297
v -486.4199 49.08535 614.3206
v -490.5858 49.15043 605.2297
v -486.4199 49.08535 614.3206
v -499.7741 48.79219 609.1674
v -495.8335 48.73154 618.3583
v -499.7741 48.79219 609.1674
v -495.8335 48.73154 618.3583
v -508.4885 48.4144 612.6147
v -504.808 48.35781 621.9128
v -508.4885 48.4144 612.6147
v -504.808 48.35781 621.9128
v -516.7361 48.01135 615.6928
v -513.2386 47.95137 625.0612
v -516.7361 48.01135 615.6928
v -513.2386 47.95137 625.0612
v -524.4946 47.67154 618.5388
v -521.0506 47.61196 627.9271
v -524.4946 47.67154 618.5388
v -521.0506 47.61196 627.9271
v -531.7311 47.39726 621.2877
v -528.1796 47.32501 630.6359
v -531.7311 47.39726 621.2877
v -528.1796 47.32501 630.6359
v -538.4167 47.17356 624.0813
v -534.5579 47.07908 633.3068
v -538.4167 47.17356 624.0813
v -534.5579 47.07908 633.3068
v -544.5249 46.97663 627.0726
v -540.1146 46.86309 636.0475
v -544.5249 46.97663 627.0726
v -540.1146 46.86309 636.0475
v -550.0256 46.81615 630.4324
v -544.7831 46.6891 638.9481
v -550.0256 46.81615 630.4324
v -544.7831 46.6891 638.9481
v -554.8674 46.68953 634.3524
v -548.5176 46.57717 642.0776
v -554.8674 46.68953 634.3524
v -548.5176 46.57717 642.0776
v -558.9449 46.59819 639.0257
v -551.3265 46.52079 645.5034
v -558.9449 46.59819 639.0257
v -551.3265 46.52079 645.5034
v -562.0995 46.56893 644.5134
v -553.3537 46.51286 649.3622
v -562.0995 46.56893 644.5134
v -553.3537 46.51286 649.3622
v -564.3268 46.5758 650.5151
v -554.9169 46.52212 653.8995
v -564.3268 46.5758 650.5151
v -554.9169 46.52212 653.8995
v -565.8807 46.59375 656.844
v -556.1583 46.54539 659.184
v -565.8807 46.59375 656.844
v -556.1583 46.54539 659.184
v -567.0427 46.57595 663.4386
v -557.1918 46.54095 665.1592
v -567.0427 46.57595 663.4386
v -557.1918 46.54095 665.1592
v -568.0588 46.50864 670.2682
v -558.1673 46.46188 671.7375
v -568.0588 46.50864 670.2682
v -558.1673 46.46188 671.7375
v -569.1461 46.42324 677.3033
v -559.2634 46.36971 678.8306
v -569.1461 46.42324 677.3033
v -559.2634 46.36971 678.8306
v -570.5042 46.40978 684.5078
v -560.6765 46.36414 686.3566
v -570.5042 46.40978 684.5078
v -560.6765 46.36414 686.3566
v -572.3218 46.46329 691.8416
v -562.6131 46.432 694.2373
v -572.3218 46.46329 691.8416
v -562.6131 46.432 694.2373
v -574.7831 46.53944 699.265
v -565.2853 46.53733 702.3943
v -574.7831 46.53944 699.265
v -565.2853 46.53733 702.3943
v -578.0325 46.60676 706.7771
v -568.8452 46.61397 710.7257
v -578.0325 46.60676 706.7771
v -568.8452 46.61397 710.7257
v -582.0646 46.65955 714.4694
v -573.2001 46.66729 719.0975
v -582.0646 46.65955 714.4694
v -573.2001 46.66729 719.0975
v -586.8019 46.66113 722.3368
v -578.23 46.68922 727.4869
v -586.8019 46.66113 722.3368
v -578.23 46.68922 727.4869
v -592.1512 46.57386 730.349
v -583.8313 46.6078 735.8969
v -592.1512 46.57386 730.349
v -583.8313 46.6078 735.8969
v -598.0157 46.45368 738.4792
v -589.9035 46.48019 744.3266
v -598.0157 46.45368 738.4792
v -589.9035 46.48019 744.3266
v -604.2966 46.32449 746.7041
v -596.3479 46.36061 752.7719
v -604.2966 46.32449 746.7041
v -596.3479 46.36061 752.7719
v -610.8948 46.06667 755.0031
v -603.0667 46.09037 761.2257
v -610.8948 46.06667 755.0031
v -603.0667 46.09037 761.2257
v -617.7108 45.65832 763.3577
v -609.962 45.67139 769.6789

vn 0 1 0
vn 0 1 0
vn 0 1 0
vn 0 1 0
vn 0 1 0
vn 0 1 0
vn 0 1 0
vn 0 1 0
vn 0 1 0
vn 0 1 0
vn 0 1 0
vn 0 1 0
vn 0 1 0
vn 0 1 0
vn 0 1 0
vn 0 1 0
vn 0 1 0
vn 0 1 0
vn 0 1 0
vn 0 1 0
vn 0 1 0
vn 0 1 0
vn 0 1 0
vn 0 1 0
vn 0 1 0
vn 0 1 0
vn 0 1 0
vn 0 1 0
vn 0 1 0
vn 0 1 0
vn 0 1 0
vn 0 1 0
vn 0 1 0
vn 0 1 0
vn 0 1 0
vn 0 1 0
vn 0 1 0
vn 0 1 0
vn 0 1 0
vn 0 1 0
vn 0 1 0
vn 0 1 0
vn 0 1 0
vn 0 1 0
vn 0 1 0
vn 0 1 0
vn 0 1 0
vn 0 1 0
vn 0 1 0
vn 0 1 0
vn 0 1 0
vn 0 1 0
vn 0 1 0
vn 0 1 0
vn 0 1 0
vn 0 1 0
vn 0 1 0
vn 0 1 0
vn 0 1 0
vn 0 1 0
vn 0 1 0
vn 0 1 0
vn 0 1 0
vn 0 1 0
vn 0 1 0
vn 0 1 0
vn 0 1 0
vn 0 1 0
vn 0 1 0
vn 0 1 0
vn 0 1 0
vn 0 1 0
vn 0 1 0
vn 0 1 0
vn 0 1 0
vn 0 1 0
vn 0 1 0
vn 0 1 0
vn 0 1 0
vn 0 1 0
vn 0 1 0
vn 0 1 0
vn 0 1 0
vn 0 1 0
vn 0 1 0
vn 0 1 0
vn 0 1 0
vn 0 1 0
vn 0 1 0
vn 0 1 0
vn 0 1 0
vn 0 1 0
vn 0 1 0
vn 0 1 0
vn 0 1 0
vn 0 1 0
vn 0 1 0
vn 0 1 0
vn 0 1 0
vn 0 1 0
vn 0 1 0
vn 0 1 0
vn 0 1 0
vn 0 1 0
vn 0 1 0
vn 0 1 0
vn 0 1 0
vn 0 1 0
vn 0 1 0
vn 0 1 0
vn 0 1 0
vn 0 1 0
vn 0 1 0
vn 0 1 0
vn 0 1 0
vn 0 1 0
vn 0 1 0
vn 0 1 0
vn 0 1 0
vn 0 1 0
vn 0 1 0
vn 0 1 0
vn 0 1 0
vn 0 1 0
vn 0 1 0
vn 0 1 0
vn 0 1 0
vn 0 1 0
vn 0 1 0
vn 0 1 0
vn 0 1 0
vn 0 1 0
vn 0 1 0
vn 0 1 0
vn 0 1 0
vn 0 1 0
vn 0 1 0
vn 0 1 0
vn 0 1 0
vn 0 1 0
vn 0 1 0
vn 0 1 0
vn 0 1 0
vn 0 1 0

vt 0 1
vt 1 1
vt 0 0
vt 1 0
vt 0 1
vt 1 1
vt 0 0
vt 1 0
vt 0 1
vt 1 1
vt 0 0
vt 1 0
vt 0 1
vt 1 1
vt 0 0
vt 1 0
vt 0 1
vt 1 1
vt 0 0
vt 1 0
vt 0 1
vt 1 1
vt 0 0
vt 1 0
vt 0 1
vt 1 1
vt 0 0
vt 1 0
vt 0 1
vt 1 1
vt 0 0
vt 1 0
vt 0 1
vt 1 1
vt 0 0
vt 1 0
vt 0 1
vt 1 1
vt 0 0
vt 1 0
vt 0 1
vt 1 1
vt 0 0
vt 1 0
vt 0 1
vt 1 1
vt 0 0
vt 1 0
vt 0 1
vt 1 1
vt 0 0
vt 1 0
vt 0 1
vt 1 1
vt 0 0
vt 1 0
vt 0 1
vt 1 1
vt 0 0
vt 1 0
vt 0 1
vt 1 1
vt 0 0
vt 1 0
vt 0 1
vt 1 1
vt 0 0
vt 1 0
vt 0 1
vt 1 1
vt 0 0
vt 1 0
vt 0 1
vt 1 1
vt 0 0
vt 1 0
vt 0 1
vt 1 1
vt 0 0
vt 1 0
vt 0 1
vt 1 1
vt 0 0
vt 1 0
vt 0 1
vt 1 1
vt 0 0
vt 1 0
vt 0 1
vt 1 1
vt 0 0
vt 1 0
vt 0 1
vt 1 1
vt 0 0
vt 1 0
vt 0 1
vt 1 1
vt 0 0
vt 1 0
vt 0 1
vt 1 1
vt 0 0
vt 1 0
vt 0 1
vt 1 1
vt 0 0
vt 1 0
vt 0 1
vt 1 1
vt 0 0
vt 1 0
vt 0 1
vt 1 1
vt 0 0
vt 1 0
vt 0 1
vt 1 1
vt 0 0
vt 1 0
vt 0 1
vt 1 1
vt 0 0
vt 1 0
vt 0 1
vt 1 1
vt 0 0
vt 1 0
vt 0 1
vt 1 1
vt 0 0
vt 1 0
vt 0 1
vt 1 1
vt 0 0
vt 1 0
vt 0 1
vt 1 1
vt 0 0
vt 1 0
vt 0 1
vt 1 1
vt 0 0
vt 1 0

usemtl RoadMaterial
usemap RoadMaterial
f 2/2/2 1/1/1 3/3/3
f 4/4/4 2/2/2 3/3/3
f 6/6/6 5/5/5 7/7/7
f 8/8/8 6/6/6 7/7/7
f 10/10/10 9/9/9 11/11/11
f 12/12/12 10/10/10 11/11/11
f 14/14/14 13/13/13 15/15/15
f 16/16/16 14/14/14 15/15/15
f 18/18/18 17/17/17 19/19/19
f 20/20/20 18/18/18 19/19/19
f 22/22/22 21/21/21 23/23/23
f 24/24/24 22/22/22 23/23/23
f 26/26/26 25/25/25 27/27/27
f 28/28/28 26/26/26 27/27/27
f 30/30/30 29/29/29 31/31/31
f 32/32/32 30/30/30 31/31/31
f 34/34/34 33/33/33 35/35/35
f 36/36/36 34/34/34 35/35/35
f 38/38/38 37/37/37 39/39/39
f 40/40/40 38/38/38 39/39/39
f 42/42/42 41/41/41 43/43/43
f 44/44/44 42/42/42 43/43/43
f 46/46/46 45/45/45 47/47/47
f 48/48/48 46/46/46 47/47/47
f 50/50/50 49/49/49 51/51/51
f 52/52/52 50/50/50 51/51/51
f 54/54/54 53/53/53 55/55/55
f 56/56/56 54/54/54 55/55/55
f 58/58/58 57/57/57 59/59/59
f 60/60/60 58/58/58 59/59/59
f 62/62/62 61/61/61 63/63/63
f 64/64/64 62/62/62 63/63/63
f 66/66/66 65/65/65 67/67/67
f 68/68/68 66/66/66 67/67/67
f 70/70/70 69/69/69 71/71/71
f 72/72/72 70/70/70 71/71/71
f 74/74/74 73/73/73 75/75/75
f 76/76/76 74/74/74 75/75/75
f 78/78/78 77/77/77 79/79/79
f 80/80/80 78/78/78 79/79/79
f 82/82/82 81/81/81 83/83/83
f 84/84/84 82/82/82 83/83/83
f 86/86/86 85/85/85 87/87/87
f 88/88/88 86/86/86 87/87/87
f 90/90/90 89/89/89 91/91/91
f 92/92/92 90/90/90 91/91/91
f 94/94/94 93/93/93 95/95/95
f 96/96/96 94/94/94 95/95/95
f 98/98/98 97/97/97 99/99/99
f 100/100/100 98/98/98 99/99/99
f 102/102/102 101/101/101 103/103/103
f 104/104/104 102/102/102 103/103/103
f 106/106/106 105/105/105 107/107/107
f 108/108/108 106/106/106 107/107/107
f 110/110/110 109/109/109 111/111/111
f 112/112/112 110/110/110 111/111/111
f 114/114/114 113/113/113 115/115/115
f 116/116/116 114/114/114 115/115/115
f 118/118/118 117/117/117 119/119/119
f 120/120/120 118/118/118 119/119/119
f 122/122/122 121/121/121 123/123/123
f 124/124/124 122/122/122 123/123/123
f 126/126/126 125/125/125 127/127/127
f 128/128/128 126/126/126 127/127/127
f 130/130/130 129/129/129 131/131/131
f 132/132/132 130/130/130 131/131/131
f 134/134/134 133/133/133 135/135/135
f 136/136/136 134/134/134 135/135/135
f 138/138/138 137/137/137 139/139/139
f 140/140/140 138/138/138 139/139/139
f 142/142/142 141/141/141 143/143/143
f 144/144/144 142/142/142 143/143/143
